<?xml version="1.0" standalone="no"?>
<!DOCTYPE svg PUBLIC "-//W3C//DTD SVG 20010904//EN"
 "http://www.w3.org/TR/2001/REC-SVG-20010904/DTD/svg10.dtd">
<svg version="1.0" xmlns="http://www.w3.org/2000/svg"
 width="2400.000000pt" height="2400.000000pt" viewBox="0 0 2400.000000 2400.000000"
 preserveAspectRatio="xMidYMid meet">

<g transform="translate(0.000000,2400.000000) scale(0.100000,-0.100000)"
fill="#000000" stroke="none">
<path d="M4700 14105 c-216 -39 -358 -81 -639 -189 -883 -339 -1757 -776
-2626 -1311 -582 -358 -947 -658 -1049 -862 -33 -66 -34 -112 -1 -151 54 -64
0 -61 1146 -67 1151 -6 1099 -8 1201 56 40 26 700 688 1888 1894 413 420 475
497 468 583 -2 31 -9 40 -38 54 -49 25 -192 22 -350 -7z"/>
<path d="M7950 13260 c-539 -5 -557 -6 -621 -28 -150 -50 -232 -154 -278 -352
-40 -174 -53 -457 -26 -585 39 -186 148 -296 338 -344 91 -23 145 -28 557 -46
521 -24 585 -30 650 -62 72 -36 103 -92 97 -171 -4 -59 -25 -94 -77 -129 -68
-47 -71 -47 -790 -53 l-685 -5 0 -210 0 -210 795 0 c725 0 803 2 890 18 236
45 377 139 459 304 53 106 65 171 65 353 1 143 -2 176 -22 245 -71 244 -223
372 -515 431 -65 13 -174 18 -512 24 -292 5 -442 11 -468 19 -61 20 -114 74
-126 129 -17 82 10 155 72 193 70 42 76 43 787 49 l685 5 3 204 c2 142 -1 208
-9 217 -12 15 -125 16 -1269 4z"/>
<path d="M9598 13259 c-17 -9 -18 -72 -18 -1098 0 -984 2 -1089 16 -1095 9 -3
149 -6 313 -6 218 0 300 3 309 12 8 8 12 68 12 203 0 135 4 195 12 203 9 9
129 12 479 12 412 0 469 -2 483 -16 13 -13 16 -46 16 -203 0 -132 4 -191 12
-199 9 -9 92 -12 313 -12 221 0 304 3 313 12 9 9 12 266 12 1095 0 1060 0
1083 -19 1093 -12 6 -129 10 -310 10 -250 0 -292 -2 -305 -16 -14 -14 -16 -86
-16 -644 0 -440 -3 -636 -11 -653 -6 -14 -22 -30 -36 -36 -16 -7 -159 -11
-449 -11 -447 0 -471 2 -488 45 -3 9 -6 301 -6 649 0 600 -1 634 -18 649 -16
15 -52 17 -308 17 -178 0 -296 -5 -306 -11z"/>
<path d="M12210 13250 c-20 -20 -20 -33 -20 -1086 0 -715 3 -1072 10 -1085 10
-18 24 -19 318 -19 226 0 311 3 320 12 9 9 12 265 12 1089 l0 1078 -22 15
c-19 14 -66 16 -310 16 -275 0 -289 -1 -308 -20z"/>
<path d="M13172 13254 l-22 -15 0 -1078 c0 -824 3 -1080 12 -1089 9 -9 93 -12
318 -12 225 0 309 3 318 12 9 9 12 216 12 868 0 652 3 859 12 868 9 9 83 12
270 12 244 0 258 -1 268 -19 7 -13 10 -302 10 -868 0 -647 3 -852 12 -861 9
-9 94 -12 320 -12 294 0 308 1 318 19 7 13 10 305 10 875 0 835 0 856 19 866
25 13 207 13 290 0 106 -18 171 -63 208 -145 17 -37 18 -96 23 -815 3 -426 9
-781 13 -787 13 -20 620 -18 636 1 9 10 11 234 8 872 -2 775 -4 864 -20 907
-79 226 -255 333 -626 382 -205 27 -511 35 -1456 35 -826 0 -933 -2 -953 -16z"/>
<path d="M19115 13257 c-20 -15 -20 -29 -23 -1080 -1 -684 1 -1074 8 -1091
l10 -26 308 0 c226 0 311 3 320 12 9 9 12 215 12 864 l0 853 27 21 c26 20 33
21 429 18 372 -3 405 -4 421 -21 17 -17 18 -67 21 -869 2 -604 6 -855 13 -865
17 -20 611 -19 628 1 8 10 11 244 9 892 l-3 879 -33 67 c-42 86 -102 139 -217
193 -111 53 -246 88 -435 114 -235 33 -405 41 -955 47 -457 5 -522 4 -540 -9z"/>
<path d="M17235 13249 c-225 -21 -452 -77 -554 -136 -57 -33 -128 -98 -156
-143 -57 -91 -55 -57 -53 -1020 l3 -885 309 -3 c219 -2 313 1 322 9 11 9 14
51 14 188 0 124 4 181 12 189 17 17 1019 17 1036 0 8 -8 12 -64 12 -188 0
-124 4 -180 12 -188 19 -19 611 -17 627 2 9 10 11 244 9 902 l-3 889 -29 62
c-77 167 -261 261 -606 308 -145 21 -785 30 -955 14z m783 -443 c67 -22 116
-71 138 -138 14 -44 18 -107 22 -378 4 -314 3 -326 -16 -350 l-20 -25 -492 0
-492 0 -20 24 c-19 24 -19 38 -16 360 3 249 7 345 17 371 34 88 95 132 208
150 32 5 184 7 338 6 230 -3 289 -6 333 -20z"/>
<path d="M22280 13254 c-396 -43 -566 -118 -652 -288 -56 -112 -58 -131 -58
-837 0 -615 1 -650 20 -725 38 -148 106 -229 245 -294 95 -44 169 -63 336 -87
174 -24 692 -24 864 0 383 53 538 161 589 410 23 110 23 1295 1 1402 -41 192
-157 307 -367 365 -159 43 -257 52 -608 55 -184 2 -351 1 -370 -1z m582 -443
c31 -12 68 -35 82 -51 51 -61 51 -67 51 -635 l0 -530 -23 -47 c-48 -97 -124
-122 -367 -123 -237 0 -318 26 -368 118 -22 42 -22 47 -25 557 -4 553 -1 596
45 650 60 72 140 91 368 87 158 -3 187 -6 237 -26z"/>
<path d="M4135 12471 c-86 -7 -125 -30 -196 -114 -29 -34 -256 -267 -504 -517
-913 -921 -1703 -1731 -1734 -1777 -85 -128 -36 -183 170 -191 141 -5 219 11
524 113 576 191 979 365 1755 756 823 414 1566 867 1930 1174 246 208 402 446
333 508 -10 8 -70 25 -133 36 -111 20 -140 21 -1095 19 -539 -1 -1011 -4
-1050 -7z"/>
</g>
</svg>
